<?xml version="1.0" encoding="UTF-8" standalone="no" ?>
<!DOCTYPE svg PUBLIC "-//W3C//DTD SVG 1.1//EN" "http://www.w3.org/Graphics/SVG/1.1/DTD/svg11.dtd">
<svg xmlns="http://www.w3.org/2000/svg" xmlns:xlink="http://www.w3.org/1999/xlink" version="1.1" width="1000" height="414" viewBox="0 0 1000 414" xml:space="preserve">
<desc>Created with Fabric.js 4.6.0</desc>
<defs>
</defs>
<g transform="matrix(1 0 0 0.41 500 206.56)" id="lzJq3EKeRCagUcw6aaQht"  >
<path style="stroke: rgb(101,163,219); stroke-width: 0; stroke-dasharray: none; stroke-linecap: butt; stroke-dashoffset: 0; stroke-linejoin: miter; stroke-miterlimit: 4; fill: rgb(56,60,60); fill-rule: nonzero; opacity: 1;" vector-effect="non-scaling-stroke"  transform=" translate(0, 0)" d="M -500 -287.86797 C -500 -405.02526 -460.76377 -500 -412.36342 -500 L 412.36342 -500 L 412.36342 -500 C 460.76377 -500 500 -405.02525 500 -287.86797 L 500 287.86796000000004 L 500 287.86796000000004 C 500 405.02525 460.76377 499.99999 412.36342 499.99999 L -412.36342 499.99999 L -412.36342 499.99999 C -460.76377 499.99999 -500 405.02524000000005 -500 287.86796000000004 z" stroke-linecap="round" />
</g>
<g transform="matrix(1 0 0 1 474.63 206.56)" id="4ppAiD_yP08YY6ZPtf825"  >
<path style="stroke: rgb(220,221,221); stroke-width: 2; stroke-dasharray: none; stroke-linecap: butt; stroke-dashoffset: 0; stroke-linejoin: miter; stroke-miterlimit: 4; fill: none; fill-rule: nonzero; opacity: 1;" vector-effect="non-scaling-stroke"  transform=" translate(-168.22, -90)" d="M 136.58451 2.75055 L 136.58451 177.60762 L 113.38179 177.60762 L 17.820219999999992 30.856750000000005 L 16.86367999999999 30.856750000000005 C 18.13932999999999 48.07938 18.77734999999999 63.86666 18.77734999999999 78.21880000000002 L 18.77734999999999 78.21880000000002 L 18.77734999999999 177.60753 L -0.000010000000010279564 177.60753 L -0.000010000000010279564 2.750460000000004 L 22.96366999999999 2.750460000000004 L 118.28604999999999 148.90328 L 119.24258999999999 148.90328 C 119.08345 146.75045 118.72434 139.83361 118.16617 128.15234999999998 C 117.60799999999999 116.47109999999998 117.40876999999999 108.11909999999999 117.56806999999999 103.09578999999998 L 117.56806999999999 103.09578999999998 L 117.56806999999999 2.7501399999999734 z M 336.43846 89.93992 L 336.43846 89.93992 C 336.43846 117.9267 329.36193000000003 139.93331 315.20922 155.95994000000002 C 301.0565 171.98646000000002 281.38202 179.99999000000003 256.18586000000005 179.99999000000003 L 256.18586000000005 179.99999000000003 C 230.43176000000005 179.99999000000003 210.55803000000003 172.12611000000004 196.56464000000005 156.37875000000003 C 182.57125000000005 140.63125000000002 175.57456000000005 118.40539000000003 175.57456000000005 89.70114000000002 L 175.57456000000005 89.70114000000002 C 175.57456000000005 61.23605000000002 182.59122000000005 39.16955000000002 196.62449000000004 23.50184000000003 C 210.65781000000004 7.83399000000003 230.59145000000004 -0.000009999999971199713 256.42523000000006 -0.000009999999971199713 L 256.42523000000006 -0.000009999999971199713 C 281.5417100000001 -0.000009999999971199713 301.15634000000006 7.973290000000029 315.26908000000003 23.92027000000003 C 329.38215 39.86716000000003 336.43843000000004 61.87373000000003 336.43843000000004 89.94029000000003 z M 197.10282 89.93992 L 197.10282 89.93992 C 197.10282 113.62104 202.14592000000002 131.58111 212.23248 143.82037 C 222.31894 156.05962 236.97005000000001 162.17922 256.18604 162.17922 L 256.18604 162.17922 C 275.56149999999997 162.17922 290.19275 156.07967 300.07993999999997 143.88017 C 309.96689999999995 131.68083 314.91058 113.70083 314.91058 89.93987999999999 L 314.91058 89.93987999999999 C 314.91058 66.41823 309.98686999999995 48.57776999999999 300.13982999999996 36.41836999999999 C 290.29272999999995 24.258799999999987 275.72128 18.17920999999999 256.42553999999996 18.17920999999999 L 256.42553999999996 18.17920999999999 C 237.05007999999995 18.17920999999999 222.31924999999995 24.298729999999992 212.23262999999997 36.53805999999999 C 202.14616999999998 48.777309999999986 197.10296999999997 66.57784999999998 197.10296999999997 89.94013999999999 z" stroke-linecap="round" />
</g>
<g transform="matrix(1 0 0 1 224.63 115.56)" id="8qsbY44uNjULXRbpbgaid"  >
<path style="stroke: none; stroke-width: 1; stroke-dasharray: none; stroke-linecap: butt; stroke-dashoffset: 0; stroke-linejoin: miter; stroke-miterlimit: 4; fill: rgb(220,221,221); fill-rule: nonzero; opacity: 1;" vector-effect="non-scaling-stroke"  transform=" translate(-184.65, -65)" d="M 91.56061 7.7539 L 91.56061 128.35028 L 77.53791 128.35028 L 77.53791 71.59895 L 14.022709999999996 71.59895 L 14.022709999999996 128.35028 L 0.000009999999996068709 128.35028 L 0.000009999999996068709 7.753900000000002 L 14.022709999999996 7.753900000000002 L 14.022709999999996 59.06089 L 77.53791 59.06089 L 77.53791 7.753900000000002 z M 188.31837 128.3502 L 178.17234 128.3502 L 175.45033999999998 115.48217 L 174.79073999999997 115.48217 C 170.28152999999998 121.14627 165.78603999999996 124.9819 161.30370999999997 126.9891 C 156.82179999999997 128.9963 151.22657999999996 129.9999 144.51726999999997 129.9999 L 144.51726999999997 129.9999 C 135.55356999999998 129.9999 128.52836999999997 127.69060999999999 123.44186999999997 123.071 C 118.35526999999996 118.45148 115.81134999999996 111.88003 115.81134999999996 103.3566 L 115.81134999999996 103.3566 C 115.81134999999996 85.0994 130.41154999999995 75.53087 159.61203999999998 74.65088 L 159.61203999999998 74.65088 L 174.95474 74.15608 L 174.95474 68.54708000000001 C 174.95474 61.45328000000001 173.42883999999998 56.21518000000001 170.37662999999998 52.83335000000001 C 167.32471999999999 49.45142000000001 162.44412999999997 47.76013000000001 155.73519 47.76013000000001 L 155.73519 47.76013000000001 C 148.20086999999998 47.76013000000001 139.67768999999998 50.06942000000001 130.16409 54.68903000000001 L 130.16409 54.68903000000001 L 125.95718999999998 44.21306000000001 C 130.41179999999997 41.793270000000014 135.29200999999998 39.89643000000001 140.59862999999999 38.52126000000001 C 145.90533 37.146670000000015 151.22565999999998 36.458970000000015 156.55982999999998 36.458970000000015 L 156.55982999999998 36.458970000000015 C 167.33822999999998 36.458970000000015 175.32613999999998 38.85117000000002 180.52230999999998 43.635570000000016 C 185.71922999999998 48.41997000000001 188.31750999999997 56.09143000000002 188.31750999999997 66.64957000000001 L 188.31750999999997 66.64957000000001 z M 147.23964 118.6993 L 147.23964 118.6993 C 155.76326 118.6993 162.45844 116.36229999999999 167.32549 111.68778999999999 C 172.19221 107.01365999999999 174.62581 100.46946 174.62581 92.05586 L 174.62581 92.05586 L 174.62581 83.88973999999999 L 160.93291 84.46734 C 150.04458 84.85234 142.19441 86.54314 137.38258 89.54056 C 132.57047 92.53769 130.16487999999998 97.19819 130.16487999999998 103.52226 L 130.16487999999998 103.52226 C 130.16487999999998 108.47156 131.66329 112.23829 134.66057999999998 114.82296000000001 C 137.65788999999998 117.40766 141.85057999999998 118.70018 147.24021 118.70018 z M 252.65856 130 L 252.65856 130 C 239.57063 130 229.43842999999998 125.97197 222.26196 117.91564 C 215.08514 109.85924 211.49713 98.46234 211.49713 83.72458 L 211.49713 83.72458 C 211.49713 68.60206000000001 215.14054 56.91628 222.42706 48.667530000000006 C 229.71336000000002 40.41863000000001 240.0936 36.29455000000001 253.56605000000002 36.29455000000001 L 253.56605000000002 36.29455000000001 C 257.91017 36.29455000000001 262.25477 36.76205000000001 266.59938 37.69644000000001 C 270.9435 38.63144000000001 274.3534 39.73124000000001 276.82778 40.99604000000001 L 276.82778 40.99604000000001 L 272.62088 52.62670000000001 C 269.59627 51.416900000000005 266.29686 50.413610000000006 262.72217 49.6159 C 259.14766000000003 48.818200000000004 255.98577 48.4198 253.23617000000002 48.4198 L 253.23617000000002 48.4198 C 234.86893 48.4198 225.68547 60.1331 225.68547 83.55942999999999 L 225.68547 83.55942999999999 C 225.68547 94.66753999999999 227.92618000000002 103.19135999999999 232.40859 109.13053 C 236.8905 115.06956 243.53092 118.03898 252.32934 118.03898 L 252.32934 118.03898 C 259.86366 118.03898 267.58958 116.41687999999999 275.50824 113.17245 L 275.50824 113.17245 L 275.50824 125.29811 C 269.45904 128.43281 261.84294 129.99973 252.65915 129.99973 z M 309.82253 82.07488 L 310.48213 82.07488 C 312.84673 78.72025 316.44865 74.32105 321.28812999999997 68.87673 L 321.28812999999997 68.87673 L 350.48852999999997 37.943999999999996 L 366.73852999999997 37.943999999999996 L 330.11411999999996 76.46547999999999 L 369.29563999999993 128.35001999999997 L 352.71583999999996 128.35001999999997 L 320.79340999999994 85.62174999999996 L 310.48227999999995 94.53019999999997 L 310.48227999999995 128.35007999999996 L 296.9542799999999 128.35007999999996 L 296.9542799999999 -2.842170943040401e-14 L 310.48227999999995 -2.842170943040401e-14 L 310.48227999999995 68.05202999999997 C 310.48227999999995 71.07645999999997 310.26207999999997 75.75102999999997 309.82267999999993 82.07473999999998 z" stroke-linecap="round" />
</g>
<g transform="matrix(1 0 0 1 724.63 297.56)" id="5wpZqWku_HxVOXaSBhXA9"  >
<path style="stroke: none; stroke-width: 1; stroke-dasharray: none; stroke-linecap: butt; stroke-dashoffset: 0; stroke-linejoin: miter; stroke-miterlimit: 4; fill: rgb(220,221,221); fill-rule: nonzero; opacity: 1;" vector-effect="non-scaling-stroke"  transform=" translate(-235.39, -65)" d="M 79.57434 94.62439 L 79.57434 94.62439 C 79.57434 105.75296 75.53784 114.43072000000001 67.46548000000001 120.65821 C 59.39248000000001 126.88586 48.43671000000001 129.99929 34.597560000000016 129.99929 L 34.597560000000016 129.99929 C 19.605300000000014 129.99929 8.072990000000015 128.06759 -0.000009999999981857854 124.20428 L -0.000009999999981857854 124.20428 L -0.000009999999981857854 110.01948999999999 C 5.189590000000019 112.21063999999998 10.840700000000018 113.94008999999998 16.95265000000002 115.20879 C 23.06461000000002 116.47748999999999 29.11936000000002 117.11134 35.11626000000002 117.11134 L 35.11626000000002 117.11134 C 44.918920000000014 117.11134 52.29967000000002 115.25169 57.25853000000002 111.53238999999999 C 62.21739000000002 107.81329 64.69713000000002 102.63826999999999 64.69713000000002 96.00686999999999 L 64.69713000000002 96.00686999999999 C 64.69713000000002 91.62486999999999 63.81768000000002 88.03576 62.05877000000002 85.23839999999998 C 60.29987000000002 82.44145999999998 57.359270000000016 79.86188999999999 53.23631000000002 77.49738999999998 C 49.11335000000002 75.13333999999998 42.84280000000002 72.45238999999998 34.42400000000002 69.45370999999999 L 34.42400000000002 69.45370999999999 C 22.66094000000002 65.24460999999998 14.25643000000002 60.25692999999998 9.211130000000022 54.49030999999999 C 4.165830000000022 48.72415999999998 1.6431700000000218 41.19948999999998 1.6431700000000218 31.915699999999987 L 1.6431700000000218 31.915699999999987 C 1.6431700000000218 22.171379999999985 5.304630000000022 14.415569999999988 12.628180000000022 8.649479999999986 C 19.951080000000022 2.8833299999999866 29.63869000000002 -1.4210854715202004e-14 41.690350000000024 -1.4210854715202004e-14 L 41.690350000000024 -1.4210854715202004e-14 C 54.260710000000024 -1.4210854715202004e-14 65.82226000000003 2.3060999999999856 76.37437000000003 6.919249999999986 L 76.37437000000003 6.919249999999986 L 71.78991000000002 19.719879999999986 C 61.35285000000002 15.337879999999986 51.20440000000002 13.146429999999985 41.343890000000016 13.146429999999985 L 41.343890000000016 13.146429999999985 C 33.55949000000002 13.146429999999985 27.476130000000015 14.818879999999984 23.093830000000015 18.162829999999985 C 18.711530000000014 21.507069999999985 16.520370000000014 26.149309999999986 16.520370000000014 32.08804999999998 L 16.520370000000014 32.08804999999998 C 16.520370000000014 36.47004999999998 17.327670000000015 40.059159999999984 18.942270000000015 42.85651999999998 C 20.556870000000014 45.65345999999998 23.281670000000016 48.21872999999998 27.116030000000016 50.55446999999998 C 30.950390000000016 52.88991999999998 36.817940000000014 55.47041999999998 44.717390000000016 58.29547999999998 L 44.717390000000016 58.29547999999998 C 57.98000000000002 63.023279999999986 67.10470000000001 68.09805999999999 72.09281000000001 73.51809999999998 C 77.08091000000002 78.93844999999997 79.57431000000001 85.97292999999998 79.57431000000001 94.62183999999998 z M 143.31988 129.99917 L 143.31988 129.99917 C 129.30782000000002 129.99917 118.25131000000002 125.73192999999999 110.14971000000001 117.19854 C 102.04811000000001 108.66476 97.99730000000001 96.81501 97.99730000000001 81.65008999999999 L 97.99730000000001 81.65008999999999 C 97.99730000000001 66.36948999999998 101.7595 54.23241999999999 109.28456000000001 45.23723999999999 C 116.80962000000001 36.24195999999999 126.91517000000002 31.744919999999993 139.60058 31.744919999999993 L 139.60058 31.744919999999993 C 151.47934 31.744919999999993 160.87835 35.651219999999995 167.79760000000002 43.46498999999999 C 174.71686000000003 51.27749999999999 178.17681000000002 61.58521999999999 178.17681000000002 74.38597999999999 L 178.17681000000002 74.38597999999999 L 178.17681000000002 83.4673 L 112.87386000000002 83.4673 C 113.16246000000002 94.59586999999999 115.97306000000002 103.04352999999999 121.30696000000002 108.80962 C 126.64086000000002 114.57576999999999 134.15097000000003 117.45909999999999 143.83857 117.45909999999999 L 143.83857 117.45909999999999 C 154.04488 117.45909999999999 164.13548 115.32589999999999 174.11169 111.05855 L 174.11169 111.05855 L 174.11169 123.85918 C 169.03713000000002 126.05032999999999 164.23688 127.62118 159.71028 128.57268 C 155.18368 129.52418 149.72042000000002 129.99998 143.31987 129.99998 z M 139.42768 43.76687 L 139.42768 43.76687 C 131.81618 43.76687 125.74712000000001 46.24662 121.22052000000001 51.205079999999995 C 116.69392 56.16392999999999 114.02696 63.02551 113.21966 71.79011 L 113.21966 71.79011 L 162.78089 71.79011 C 162.78089 62.73739 160.76263 55.80361 156.72613 50.9886 C 152.68963000000002 46.17405 146.92347 43.76645 139.42767 43.76645 z M 281.88299 128.26926 L 267.52513 128.26926 L 267.52513 66.94636 C 267.52513 59.219809999999995 265.76623 53.45404 262.24907 49.64825 C 258.73191 45.84251 253.22511000000003 43.940239999999996 245.72866000000002 43.940239999999996 L 245.72866000000002 43.940239999999996 C 235.81095000000002 43.940239999999996 228.54525 46.62148 223.93219000000002 51.98392 C 219.31913000000003 57.346129999999995 217.01293 66.19731 217.01293 78.53709 L 217.01293 78.53709 L 217.01293 128.27013 L 202.65507000000002 128.27013 L 202.65507000000002 33.47507999999999 L 214.33168000000003 33.47507999999999 L 216.66714000000005 46.44860999999999 L 217.35939000000005 46.44860999999999 C 220.29999000000004 41.77800999999999 224.42295000000004 38.16028999999999 229.72825000000006 35.59407999999999 C 235.03291000000007 33.02807999999999 240.94336000000007 31.74543999999999 247.45961000000005 31.74543999999999 L 247.45961000000005 31.74543999999999 C 258.87687000000005 31.74543999999999 267.46858000000003 34.498639999999995 273.23472000000004 40.00515999999999 C 279.00088000000005 45.51166999999999 281.88428000000005 54.31986999999999 281.88428000000005 66.42832999999999 L 281.88428000000005 66.42832999999999 z M 372.52878 102.40862 L 372.52878 102.40862 C 372.52878 111.231 369.24172 118.03502 362.66827 122.82075 C 356.09481 127.6067 346.86871 130 334.98995 130 L 334.98995 130 C 322.41959 130 312.61694 128.01035 305.58198000000004 124.03209 L 305.58198000000004 124.03209 L 305.58198000000004 110.71267 C 310.13718000000006 113.01877 315.02454000000006 114.83561 320.24274 116.16162 C 325.46094000000005 117.48752 330.49195000000003 118.15127 335.33575 118.15127 L 335.33575 118.15127 C 342.83155 118.15127 348.59836 116.95461999999999 352.63421 114.56217 C 356.67071 112.16897 358.68897 108.52171999999999 358.68897 103.6208 L 358.68897 103.6208 C 358.68897 99.9303 357.08867 96.77409 353.88871 94.14972 C 350.68875 91.52652 344.44615 88.42647 335.16284 84.85154 L 335.16284 84.85154 C 326.34038000000004 81.5645 320.06983 78.69643 316.35053 76.24602 C 312.63123 73.79562 309.86352999999997 71.01287 308.04742999999996 67.89944 C 306.23132999999996 64.78614 305.32262999999995 61.067029999999995 305.32262999999995 56.74201 L 305.32262999999995 56.74201 C 305.32262999999995 49.015460000000004 308.46538999999996 42.917320000000004 314.75023999999996 38.44888 C 321.03574 33.980140000000006 329.65604999999994 31.745430000000002 340.61181 31.745430000000002 L 340.61181 31.745430000000002 C 350.81811999999996 31.745430000000002 360.79368 33.82143 370.53848 37.97308 L 370.53848 37.97308 L 365.43532 49.649210000000004 C 355.92125999999996 45.72861 347.30030999999997 43.767360000000004 339.57375 43.767360000000004 L 339.57375 43.767360000000004 C 332.76955000000004 43.767360000000004 327.63779 44.834010000000006 324.17784 46.9673 C 320.71788 49.100500000000004 318.98824 52.041850000000004 318.98824 55.789680000000004 L 318.98824 55.789680000000004 C 318.98824 58.32663 319.63694000000004 60.48888 320.93434 62.27629 C 322.23174 64.06369000000001 324.32214000000005 65.76483 327.2049 67.37944 C 330.0883 68.99394000000001 335.6237 71.32948 343.81176 74.38475 L 343.81176 74.38475 C 355.05611999999996 78.47909 362.65267 82.60132999999999 366.60273 86.75344 C 370.55279 90.90498 372.52749 96.12335999999999 372.52749 102.40844 z M 435.92843 129.99917 L 435.92843 129.99917 C 421.91637 129.99917 410.85985999999997 125.73192999999999 402.75826 117.19854 C 394.65666 108.66476 390.60585000000003 96.81501 390.60585000000003 81.65008999999999 L 390.60585000000003 81.65008999999999 C 390.60585000000003 66.36948999999998 394.36805000000004 54.23241999999999 401.89311000000004 45.23723999999999 C 409.41817000000003 36.24195999999999 419.52372 31.744919999999993 432.20913 31.744919999999993 L 432.20913 31.744919999999993 C 444.08789 31.744919999999993 453.4869 35.651219999999995 460.40615 43.46498999999999 C 467.32541000000003 51.27749999999999 470.78536 61.58521999999999 470.78536 74.38597999999999 L 470.78536 74.38597999999999 L 470.78536 83.4673 L 405.48241 83.4673 C 405.77101 94.59586999999999 408.58161 103.04352999999999 413.91551000000004 108.80962 C 419.24941 114.57576999999999 426.75952000000007 117.45909999999999 436.44712000000004 117.45909999999999 L 436.44712000000004 117.45909999999999 C 446.65343 117.45909999999999 456.74403000000007 115.32589999999999 466.72024000000005 111.05855 L 466.72024000000005 111.05855 L 466.72024000000005 123.85918 C 461.64568 126.05032999999999 456.84543 127.62118 452.31883000000005 128.57268 C 447.7922300000001 129.52418 442.32897 129.99998 435.9284200000001 129.99998 z M 432.03623 43.76687 L 432.03623 43.76687 C 424.42473 43.76687 418.35567 46.24662 413.82907 51.205079999999995 C 409.30247 56.16392999999999 406.63551 63.02551 405.82821 71.79011 L 405.82821 71.79011 L 455.38944000000004 71.79011 C 455.38944000000004 62.73739 453.37118000000004 55.80361 449.33468000000005 50.9886 C 445.29818000000006 46.17405 439.53202000000005 43.76645 432.03622000000007 43.76645 z" stroke-linecap="round" />
</g>
</svg>